<?xml version="1.0" standalone="no"?><!DOCTYPE svg PUBLIC "-//W3C//DTD SVG 1.1//EN" "http://www.w3.org/Graphics/SVG/1.1/DTD/svg11.dtd"><svg t="1731289992651" class="icon" viewBox="0 0 1024 1024" version="1.1" xmlns="http://www.w3.org/2000/svg" p-id="3297" xmlns:xlink="http://www.w3.org/1999/xlink" width="200" height="200"><path d="M670 782.191a160.693 160.693 0 0 1 19.25-50.014 33.09 33.09 0 0 0 18.981 5.948c18.36 0 33.244-14.885 33.244-33.247 0-8.16-2.94-15.632-7.816-21.418 18.29-13.264 39.469-22.791 62.412-27.46 2.539 15.842 16.268 27.945 32.824 27.945 16.498 0 30.19-12.02 32.797-27.781 22.851 4.77 43.932 14.364 62.13 27.669a33.112 33.112 0 0 0-7.508 21.045c0 18.362 14.884 33.247 33.244 33.247a33.087 33.087 0 0 0 18.395-5.549A160.686 160.686 0 0 1 987 782.347c-15.057 3.171-26.36 16.532-26.36 32.534 0 15.944 11.223 29.267 26.2 32.499a160.773 160.773 0 0 1-21.835 53.802 33.097 33.097 0 0 0-15.447-3.8c-18.36 0-33.244 14.886-33.244 33.248a33.096 33.096 0 0 0 4.463 16.65c-17.57 12.235-37.683 21.072-59.386 25.56-3.231-14.979-16.553-26.203-32.496-26.203-16 0-29.36 11.305-32.53 26.363-21.765-4.387-41.947-13.143-59.591-25.316a33.095 33.095 0 0 0 4.701-17.054c0-18.362-14.884-33.247-33.244-33.247a33.092 33.092 0 0 0-16.057 4.128 160.78 160.78 0 0 1-22.012-53.971c15.37-2.927 26.988-16.436 26.988-32.66 0-16.28-11.7-29.826-27.15-32.689zM830 871c30.376 0 55-24.624 55-55s-24.624-55-55-55-55 24.624-55 55 24.624 55 55 55zM489.244 973.16a32.064 32.064 0 0 1-25.216-12.224l-75.2-96.128a32.32 32.32 0 0 1-6.464-24.704l31.68-204.032c2.429-15.581 15.846-27.07 31.616-27.072h79.232c15.79 0.006 29.216 11.53 31.616 27.136l31.68 204.032a32 32 0 0 1-5.44 23.232l-67.264 96.128a32.128 32.128 0 0 1-25.344 13.632h-0.896zM447 836.2l40.064 51.2 35.136-50.176L496.728 673h-24.384L447 836.2z m282.885-165.28C664.765 592.75 566.693 543 457 543c-196.061 0-355 158.939-355 355a358.14 358.14 0 0 0 3.354 49H39.951A430.475 430.475 0 0 1 37 896.59c0-176.836 107.718-328.315 260.63-391.423-57.596-46.799-94.443-118.494-94.443-198.864C203.187 165.303 316.599 51 456.5 51c139.901 0 253.313 114.303 253.313 255.303 0 80.37-36.847 152.065-94.444 198.864 69.9 28.848 130.356 76.162 175.396 135.924a265.453 265.453 0 0 0-60.88 29.829zM457 499c106.039 0 192-85.961 192-192s-85.961-192-192-192-192 85.961-192 192 85.961 192 192 192z" p-id="3298"></path></svg>