<?xml version="1.0" standalone="no"?><!DOCTYPE svg PUBLIC "-//W3C//DTD SVG 1.1//EN" "http://www.w3.org/Graphics/SVG/1.1/DTD/svg11.dtd"><svg t="1731289975423" class="icon" viewBox="0 0 1024 1024" version="1.1" xmlns="http://www.w3.org/2000/svg" p-id="2724" xmlns:xlink="http://www.w3.org/1999/xlink" width="200" height="200"><path d="M948.477 1022.632H73.387c-20.06 0-36.464-16.405-36.464-36.464 0-20.059 16.405-36.463 36.464-36.463h875.09c20.049 0 36.463 16.404 36.463 36.463 0 20.06-16.414 36.464-36.463 36.464z m0-145.845H73.387c-20.06 0-36.464-16.405-36.464-36.464V658.015c0-60.157 49.224-109.382 109.391-109.382h233.36c-7.299-43.762-29.175-85.687-60.167-122.151-41.925-47.407-63.802-107.564-63.802-169.548 0-69.284 27.348-134.912 78.39-184.136 51.04-49.224 116.67-72.928 187.77-71.1 131.267 5.47 242.476 118.497 244.293 249.764 1.827 65.629-23.704 129.44-67.456 178.664-30.992 32.82-49.224 72.928-56.513 118.507h233.36c60.157 0 109.391 49.225 109.391 109.382v182.308c0 20.06-16.414 36.464-36.463 36.464zM109.84 803.86h802.162V658.015c0-20.05-16.405-36.464-36.454-36.464H602.081c-20.059 0-36.464-16.405-36.464-36.464 0-76.562 27.348-149.5 78.39-204.185 32.819-34.636 49.223-80.216 49.223-127.623-1.827-94.804-80.216-175.02-175.02-178.664-51.05-1.827-98.448 16.405-133.094 51.051-36.464 34.637-56.513 82.034-56.513 131.268 0 43.752 16.405 87.505 45.58 120.324 52.868 60.157 82.033 133.085 82.033 207.83 0 20.058-16.405 36.463-36.454 36.463H146.304c-20.059 0-36.463 16.405-36.463 36.464V803.86z m0 0" p-id="2725"></path></svg>