<?xml version="1.0" standalone="no"?><!DOCTYPE svg PUBLIC "-//W3C//DTD SVG 1.1//EN" "http://www.w3.org/Graphics/SVG/1.1/DTD/svg11.dtd"><svg t="1731289971165" class="icon" viewBox="0 0 1024 1024" version="1.1" xmlns="http://www.w3.org/2000/svg" p-id="2581" xmlns:xlink="http://www.w3.org/1999/xlink" width="200" height="200"><path d="M538.529998 238.778061c66.094995 0 119.622991-53.386996 119.622991-119.34199A119.574991 119.574991 0 0 0 538.529998 0.00008a119.481991 119.481991 0 0 0-119.621991 119.342991 119.574991 119.574991 0 0 0 119.621991 119.48199zM270.663019 709.632025a119.900991 119.900991 0 0 0-163.699987-43.752997 119.295991 119.295991 0 0 0-43.845997 163.234987 119.900991 119.900991 0 0 0 163.699987 43.752997 119.435991 119.435991 0 0 0 43.845997-163.234987z m670.021948-55.667996a119.807991 119.807991 0 0 0-163.746988 43.751996 119.342991 119.342991 0 0 0 43.891997 163.234988A119.807991 119.807991 0 0 0 984.575963 817.200016a119.481991 119.481991 0 0 0-43.891996-163.234987zM716.054984 216.669063a387.72397 387.72397 0 0 1 208.849984 370.361971c-1.257 20.060998 13.962999 37.515997 34.163997 38.772997l2.374 0.093c19.083999 0 35.234997-14.801999 36.491997-34.071997a459.869964 459.869964 0 0 0-68.002995-272.988979 464.057964 464.057964 0 0 0-179.898986-166.818987 36.584997 36.584997 0 0 0-49.383996 15.499999 36.165997 36.165997 0 0 0 15.405999 49.151996zM110.592031 623.523031c0.698 0 1.49 0 2.188-0.093a36.584997 36.584997 0 0 0 34.396998-38.585997A387.48997 387.48997 0 0 1 358.260012 215.599063a36.444997 36.444997 0 1 0-33.511997-64.837995 464.243964 464.243964 0 0 0-181.713986 166.911987 460.101964 460.101964 0 0 0-68.886995 271.545979c1.117 19.269998 17.221999 34.303997 36.444997 34.303997z m632.552951 267.403979a388.74797 388.74797 0 0 1-207.080984 59.391996c-74.286994 0-146.617989-20.945998-208.989984-60.509996a36.491997 36.491997 0 1 0-39.329996 61.579996 462.475964 462.475964 0 0 0 248.31998 72.051994 462.056964 462.056964 0 0 0 245.945981-70.608994 36.491997 36.491997 0 1 0-38.864997-61.904996z" p-id="2582"></path></svg>