<?xml version="1.0" standalone="no"?><!DOCTYPE svg PUBLIC "-//W3C//DTD SVG 1.1//EN" "http://www.w3.org/Graphics/SVG/1.1/DTD/svg11.dtd"><svg t="1731289937855" class="icon" viewBox="0 0 1024 1024" version="1.1" xmlns="http://www.w3.org/2000/svg" p-id="2009" xmlns:xlink="http://www.w3.org/1999/xlink" width="200" height="200"><path d="M536.25 387.5c-75.625 0-136.875 61.875-136.875 137.5s61.25 136.875 136.875 136.875S673.125 600.625 673.125 525c0.625-75.625-61.25-137.5-136.875-137.5z m363.125-225.625l-4.375-125L765.625 166.25v86.25l-258.75 258.75L550 554.375l258.125-258.75h86.25L1023.75 166.25l-124.375-4.375z m-4.375 195C918.75 408.125 932.5 465 932.5 525c0 218.125-177.5 396.25-396.25 396.25S140.625 743.125 140.625 525s177.5-396.25 396.25-396.25c60 0 116.875 13.75 168.125 37.5 0-16.25 6.875-31.25 18.125-42.5L756.875 90C690 56.25 615.625 37.5 536.25 37.5c-269.375 0-487.5 218.125-487.5 487.5s218.125 487.5 487.5 487.5 487.5-218.125 487.5-487.5c0-78.75-18.75-153.75-52.5-219.375l-33.75 33.75c-11.25 10.625-26.25 17.5-42.5 17.5zM757.5 525c0 121.875-99.375 220.625-220.625 220.625C415 745.625 316.25 646.25 316.25 525c0-121.875 99.375-220.625 220.625-220.625 27.5 0 53.125 5 77.5 14.375l63.125-63.125c-41.875-21.875-90-34.375-140.625-34.375C368.75 221.25 232.5 357.5 232.5 525.625S368.75 830 536.875 830 841.25 693.75 841.25 525.625c0-50.625-12.5-98.75-35-140.625l-63.125 63.125C752.5 471.25 757.5 497.5 757.5 525z" p-id="2010"></path></svg>