<?xml version="1.0" standalone="no"?><!DOCTYPE svg PUBLIC "-//W3C//DTD SVG 1.1//EN" "http://www.w3.org/Graphics/SVG/1.1/DTD/svg11.dtd"><svg t="1731290026334" class="icon" viewBox="0 0 1024 1024" version="1.1" xmlns="http://www.w3.org/2000/svg" p-id="4155" xmlns:xlink="http://www.w3.org/1999/xlink" width="200" height="200"><path d="M351.94 575.903H223.963c-17.717 0-31.994-14.277-31.994-31.994 0-17.718 14.277-31.995 31.994-31.995h95.984V415.93c0-17.717 14.277-31.995 31.995-31.995 17.717 0 31.994 14.278 31.994 31.995V543.91c0 17.717-14.277 31.994-31.994 31.994zM702.162 666.899c-61.925 0-113.702 43.347-127.29 101.144H451.02c-13.59-57.969-65.365-101.144-127.29-101.144-72.246 0-131.075 58.829-131.075 131.074 0 72.418 58.829 131.247 131.075 131.247 60.377 0 110.777-41.283 125.914-97.016h126.43c15.137 55.733 65.538 97.016 126.087 97.016 72.246 0 131.074-58.829 131.074-131.075S774.408 666.9 702.162 666.9zM323.73 865.059c-36.983 0-67.086-30.103-67.086-67.258 0-36.983 30.103-67.085 67.086-67.085s67.085 30.102 67.085 67.085c0 37.155-30.102 67.258-67.085 67.258z m378.43-0.172c-36.982 0-67.085-30.103-67.085-67.086s30.103-67.085 67.086-67.085 67.085 30.102 67.085 67.085-30.102 67.086-67.085 67.086z" p-id="4156"></path><path d="M864.027 95.984H399.76c-44.036 0-79.815 35.779-79.815 79.814v92.544l-194.548 97.704a30.293 30.293 0 0 0-3.956 2.408c-36.123 25.458-56.077 65.022-56.077 111.465v322.01c0 17.718 14.278 31.995 31.995 31.995s31.995-14.277 31.995-31.994V479.92c0-24.943 9.116-44.552 27.006-57.97l210.03-105.272c1.375-0.688 2.407-2.064 3.611-2.924 1.893-1.376 3.785-2.58 5.333-4.129 1.376-1.548 2.408-3.268 3.44-4.988s2.236-3.268 2.924-5.332c0.86-2.237 1.032-4.473 1.376-6.709 0.172-1.548 0.86-2.924 0.86-4.472V175.798c0-8.6 7.053-15.825 15.826-15.825h464.266c17.545 0 31.995 14.621 31.995 32.51v607.383c0 17.717 14.277 31.994 31.994 31.994s31.995-14.277 31.995-31.994V192.484c0-53.153-43.176-96.5-95.984-96.5z" p-id="4157"></path></svg>