<?xml version="1.0" standalone="no"?><!DOCTYPE svg PUBLIC "-//W3C//DTD SVG 1.1//EN" "http://www.w3.org/Graphics/SVG/1.1/DTD/svg11.dtd"><svg t="1731289956654" class="icon" viewBox="0 0 1024 1024" version="1.1" xmlns="http://www.w3.org/2000/svg" p-id="2152" xmlns:xlink="http://www.w3.org/1999/xlink" width="200" height="200"><path d="M724.276 55.467c31.275 0 60.16 16.725 75.819 43.946l212.224 368.64a88.107 88.107 0 0 1 0 87.894l-212.224 368.64a87.552 87.552 0 0 1-75.819 43.946H299.828a87.552 87.552 0 0 1-75.819-43.946L11.785 555.947a88.107 88.107 0 0 1 0-87.894L224.01 99.413a87.552 87.552 0 0 1 75.82-43.946h424.447z m0 79.061H299.828a8.747 8.747 0 0 0-6.144 2.56l-1.408 1.835L80.052 507.605a8.79 8.79 0 0 0-0.853 6.656l0.853 2.134 212.224 368.64a8.747 8.747 0 0 0 5.29 4.138l2.262 0.299h424.448a8.747 8.747 0 0 0 6.144-2.56l1.408-1.835 212.224-368.682a8.79 8.79 0 0 0 0.853-6.656l-0.853-2.134-212.224-368.64a8.747 8.747 0 0 0-5.29-4.138l-2.262-0.299zM512.052 256a256 256 0 1 1 0 512 256 256 0 0 1 0-512z m0 76.8a179.2 179.2 0 1 0 0 358.4 179.2 179.2 0 0 0 0-358.4z" p-id="2153"></path></svg>