<?xml version="1.0" standalone="no"?><!DOCTYPE svg PUBLIC "-//W3C//DTD SVG 1.1//EN" "http://www.w3.org/Graphics/SVG/1.1/DTD/svg11.dtd"><svg t="1731289979396" class="icon" viewBox="0 0 1024 1024" version="1.1" xmlns="http://www.w3.org/2000/svg" p-id="2867" xmlns:xlink="http://www.w3.org/1999/xlink" width="200" height="200"><path d="M640 512c0 40.8-19.2 76.8-48.8 100L548 568.8l-45.6 45.6 24.8 24.8c-4.8 0.8-10.4 0.8-15.2 0.8-70.4 0-128-57.6-128-128s57.6-128 128-128 128 57.6 128 128z m226.4-283.2v244.8c0 226.4-151.2 437.6-353.6 489.6C309.6 912 158.4 700 158.4 473.6V228.8L512.8 65.6l353.6 163.2zM636.8 657.6C677.6 622.4 704 570.4 704 512c0-106.4-85.6-192-192-192s-192 86.4-192 192 85.6 192 192 192c24 0 46.4-4.8 68-12l58.4 58.4 45.6-45.6-47.2-47.2z" p-id="2868"></path></svg>