<?xml version="1.0" standalone="no"?><!DOCTYPE svg PUBLIC "-//W3C//DTD SVG 1.1//EN" "http://www.w3.org/Graphics/SVG/1.1/DTD/svg11.dtd"><svg t="1731289961936" class="icon" viewBox="0 0 1213 1024" version="1.1" xmlns="http://www.w3.org/2000/svg" p-id="2295" xmlns:xlink="http://www.w3.org/1999/xlink" width="236.9140625" height="200"><path d="M1004.046 568.908l-379.622 358.12a54.421 54.421 0 0 0 0.265 80.4c23.779 22.185 62.196 22.071 85.823-0.228l470.337-443.677a56.886 56.886 0 0 0 32.729-52.942 54.876 54.876 0 0 0-17.635-41.49L716.466 16.844a63.561 63.561 0 0 0-85.785-0.265 54.421 54.421 0 0 0-0.265 80.437l379.622 358.12H56.886a56.886 56.886 0 0 0 0 113.772h947.16z" p-id="2296"></path></svg>