<?xml version="1.0" standalone="no"?><!DOCTYPE svg PUBLIC "-//W3C//DTD SVG 1.1//EN" "http://www.w3.org/Graphics/SVG/1.1/DTD/svg11.dtd"><svg t="1731290014105" class="icon" viewBox="0 0 1024 1024" version="1.1" xmlns="http://www.w3.org/2000/svg" p-id="3869" xmlns:xlink="http://www.w3.org/1999/xlink" width="200" height="200"><path d="M850.176 64L992 400l-96 115.2V960H128V515.2L32 400 174.4 64h675.84zM512 400L384 515.2 256 400l-64 57.6V704h320v64H192v128h448V515.2L512 400z m256 0l-64 57.6V896h128V457.6L768 400z m39.744-272.064H216.832l-110.72 261.056 28.48 34.112L256 313.92l127.936 115.136L512 313.856l128 115.2 128-115.2 121.344 109.248 28.48-34.176-110.08-260.992z" p-id="3870"></path></svg>