<?xml version="1.0" standalone="no"?><!DOCTYPE svg PUBLIC "-//W3C//DTD SVG 1.1//EN" "http://www.w3.org/Graphics/SVG/1.1/DTD/svg11.dtd"><svg t="1731290044126" class="icon" viewBox="0 0 1024 1024" version="1.1" xmlns="http://www.w3.org/2000/svg" p-id="4586" xmlns:xlink="http://www.w3.org/1999/xlink" width="200" height="200"><path d="M794.876 623.33c-4.784-4.062-7.258-6.38-9.952-8.4-27.737-20.754-37.713-44.19-32.319-82.145 19.8-139.245-93.017-253.946-206.836-266.31-143.583-15.602-261.732 74.766-279.96 212.772-21.77 164.801 123.73 302.652 287.365 271.41 18.378-3.506 30.783 0.446 42.82 13.75 8.514 9.43 19.276 16.846 32.58 28.196-37.473 19.617-38.011 50.35-36.04 81.84 1.936 31.034-3.793 60.916-34.653 73.425-33.676 13.66-71.837 16.504-103.297-3.983-14.46-9.421-21.935-32.737-27.673-51.282-4.352-14.048-0.68-30.5-1.04-45.88-0.56-24.534-11.77-42.689-34.499-52.259-22.689-9.547-43.47-5.464-61.298 11.907-11.018 10.738-21.743 21.794-33.06 32.197-21.937 20.16-52.574 26.043-75.034 9.692-19.629-14.298-37.691-32.264-52.094-51.806-15.78-21.428-9.509-54.512 9.919-75.27 10.47-11.205 22.021-21.403 32.74-32.384 15.635-16.002 21.25-35.372 14.46-56.601-7.082-22.118-23.34-35.937-46.434-38.981-17.727-2.337-35.8-1.867-53.721-2.76-38.678-1.923-61.156-24.4-62.808-63.173-0.515-11.947-0.479-23.938-0.044-35.885 1.439-39.964 26.6-64.674 66.684-65.56 14.517-0.32 29.097 0.572 43.574-0.286 24.105-1.416 42.94-12.609 51.91-35.371 8.92-22.633 3.952-43.585-13.62-61.066-9.673-9.635-19.343-19.29-28.817-29.136-4.1-4.272-8.377-8.62-11.405-13.637-21.141-35.014-8.628-69.844 38.73-108.712 27.561-22.62 61.066-21.495 87.969 3.302 11.302 10.416 21.803 21.712 33.15 32.078 18.179 16.624 39.645 20.28 61.774 10.708 21.187-9.166 33.18-26.012 32.98-50.296-0.132-16.218-0.212-32.506 0.965-48.668 2.279-31.39 22.609-55.883 53.202-60.253 20.027-2.861 41.11-2.827 61.155-0.035 28.817 4.009 49.547 29.525 51.112 59.17 0.913 17.046-0.777 34.263 0.605 51.252 1.938 23.7 12.787 41.89 36.237 51.21 23.646 9.388 43.388 3.283 60.841-13.61 7.36-7.132 14.276-14.74 21.529-21.985 4.826-4.826 9.55-9.874 14.94-14.027 34.249-26.36 72.397-15.23 113.57 32.895 25.1 29.332 23.431 64.166-4.146 91.538-10.901 10.822-22.363 21.295-31.896 33.259-14.864 18.652-19.838 40.296-8.697 62.27 10.434 20.57 28.559 31.033 52.106 31.027 14.533-0.012 29.084-0.52 43.578 0.177 34.573 1.673 59.32 22.192 63.605 55.235 2.396 18.451 2.411 37.747-0.078 56.182-4.432 32.808-30.227 54.029-63.68 55.308-10.245 0.396-20.565 0.749-30.763-0.056-26.606-2.09-48.629 6.18-66.236 29.017zM336.43 465.278c21.129 22.158 41.911 44.652 63.458 66.386 41.072 41.432 94.474 42.723 134.032 3.772 40.815-40.181 40.192-92.732-2.596-135.204-21.811-21.637-45.026-41.848-65.681-66.107 55.258-16.458 105.312-7.43 150.141 23.894 71.06 49.655 97.592 133.46 68.604 215.108-5.522 15.544-0.925 23.335 8.91 32.963C746.4 658.085 799.44 710.156 851.982 762.722c30.141 30.171 28.558 66.27-2.897 93.571-25.333 21.976-56.919 21.16-82.622-3.98-53.157-51.972-105.923-104.357-158.085-157.32-12.118-12.295-21.594-15.47-39.462-9.458-69.97 23.549-133.781 9.174-187.103-41.697-50.094-47.784-65.217-107.37-53.014-174.026 2.548-1.507 5.094-3.02 7.63-4.534z m472.857 312.145c-17.693 2.097-29.64 11.274-31.242 30.09-1.463 17.126 14.383 32.66 31.79 32.693 17.664 0.03 32.298-14.9 31.29-32.889-1.085-19.346-12.804-28.3-31.838-29.894z m0 0" p-id="4587"></path></svg>