<?xml version="1.0" standalone="no"?><!DOCTYPE svg PUBLIC "-//W3C//DTD SVG 1.1//EN" "http://www.w3.org/Graphics/SVG/1.1/DTD/svg11.dtd"><svg t="1731290047815" class="icon" viewBox="0 0 1024 1024" version="1.1" xmlns="http://www.w3.org/2000/svg" p-id="4729" xmlns:xlink="http://www.w3.org/1999/xlink" width="200" height="200"><path d="M859.136 719.872h-696.32c-22.016 0-39.936-17.92-39.936-39.936v-491.52c0-22.016 17.92-39.936 39.936-39.936h696.32c22.016 0 39.936 17.92 39.936 39.936v491.52c0 22.016-17.92 39.936-39.936 39.936z m-676.864-58.88h657.92v-453.12h-657.92v453.12z" p-id="4730"></path><path d="M754.176 610.304h-491.52c-5.632 0-10.24-4.608-10.24-10.24v-337.92c0-5.632 4.608-10.24 10.24-10.24h491.52c5.632 0 10.24 4.608 10.24 10.24v337.92c0 5.632-4.608 10.24-10.24 10.24z m134.656 256.512h-755.2c-5.632 0-10.24-4.608-10.24-10.24v-38.4c0-5.632 4.608-10.24 10.24-10.24h755.2c5.632 0 10.24 4.608 10.24 10.24v38.4c0 5.632-4.608 10.24-10.24 10.24z" p-id="4731"></path><path d="M480.256 699.904h58.88v118.272h-58.88z" p-id="4732"></path></svg>