<?xml version="1.0" standalone="no"?><!DOCTYPE svg PUBLIC "-//W3C//DTD SVG 1.1//EN" "http://www.w3.org/Graphics/SVG/1.1/DTD/svg11.dtd"><svg t="1735193042320" class="icon" viewBox="0 0 1024 1024" version="1.1" xmlns="http://www.w3.org/2000/svg" p-id="5558" ne="0.8548756885721056" xmlns:xlink="http://www.w3.org/1999/xlink" width="200" height="200"><path d="M825.7 153.5H638.4c-18.8-52-68.1-89.6-126.4-89.6s-107.5 37.6-126.4 89.6H198.3c-49.3 0-89.6 40.3-89.6 89.6v627.4c0 49.3 40.3 89.6 89.6 89.6h627.4c49.3 0 89.6-40.3 89.6-89.6V243.1c0-49.3-40.3-89.6-89.6-89.6z m-313.7 0c24.6 0 44.8 20.2 44.8 44.8 0 24.6-20.2 44.8-44.8 44.8s-44.8-20.2-44.8-44.8c0-24.6 20.2-44.8 44.8-44.8z m-51.1 488.4v104.8l-179-179 179-179V491c179 25.6 255.6 153.4 281.2 281.2-63.9-89.4-153.4-130.3-281.2-130.3z" p-id="5559"></path></svg>