<?xml version="1.0" standalone="no"?><!DOCTYPE svg PUBLIC "-//W3C//DTD SVG 1.1//EN" "http://www.w3.org/Graphics/SVG/1.1/DTD/svg11.dtd"><svg t="1735192359905" class="icon" viewBox="0 0 1024 1024" version="1.1" xmlns="http://www.w3.org/2000/svg" p-id="3495" ne="0.4380923897151179" xmlns:xlink="http://www.w3.org/1999/xlink" width="200" height="200"><path d="M800.768 1006.933333H167.765333a70.997333 70.997333 0 0 1-70.997333-70.826666V122.026667A70.997333 70.997333 0 0 1 167.765333 51.2h633.002667a70.997333 70.997333 0 0 1 70.997333 70.826667v814.08A70.997333 70.997333 0 0 1 800.768 1006.933333zM167.765333 102.4a19.797333 19.797333 0 0 0-19.797333 19.626667v814.08A19.797333 19.797333 0 0 0 167.765333 955.733333h633.002667a19.797333 19.797333 0 0 0 19.797333-19.626666V122.026667A19.797333 19.797333 0 0 0 800.768 102.4z"  p-id="3496"></path><path d="M800.938667 76.8H167.594667a45.226667 45.226667 0 0 0-45.056 45.226667v814.08a45.226667 45.226667 0 0 0 45.056 45.226666h633.344a45.226667 45.226667 0 0 0 45.056-45.226666V122.026667a45.226667 45.226667 0 0 0-45.056-45.226667z" fill="hsla(0,0%,20%,1)" p-id="3497"></path><path d="M710.485333 373.76h-452.266666a25.6 25.6 0 0 1 0-51.2h452.266666a25.6 25.6 0 0 1 0 51.2zM710.485333 554.666667h-452.266666a25.6 25.6 0 0 1 0-51.2h452.266666a25.6 25.6 0 0 1 0 51.2zM710.485333 735.573333h-452.266666a25.6 25.6 0 0 1 0-51.2h452.266666a25.6 25.6 0 0 1 0 51.2z"  p-id="3498"></path><path d="M348.501333 826.026667a25.6 25.6 0 0 1-25.6-25.6V257.706667a25.6 25.6 0 0 1 51.2 0v542.72a25.6 25.6 0 0 1-25.6 25.6z"  p-id="3499"></path></svg>