<?xml version="1.0" standalone="no"?>
<!DOCTYPE svg PUBLIC "-//W3C//DTD SVG 1.1//EN" "http://www.w3.org/Graphics/SVG/1.1/DTD/svg11.dtd"><svg t="1733901022471"
    class="icon" viewBox="0 0 1025 1024" version="1.1" xmlns="http://www.w3.org/2000/svg" p-id="2385"
    xmlns:xlink="http://www.w3.org/1999/xlink" width="200.1953125" height="200">
    <path
        d="M472.860846 194.876089c83.105227 0 193.91105 25.937377 193.91105 250.017528 0 18.349516 15.172282 33.523518 33.521797 33.523518 18.351236 0 33.525238-15.172282 33.525238-33.523518 0-261.838834-141.509911-316.360996-260.252797-316.360996s-260.251077 54.874806-260.251077 316.360996c0 110.630361 50.815102 217.551942 130.039528 277.542662l0 4.940453C167.263225 752.605381 55.046827 824.417407 55.046827 913.519298c0 18.351236 15.174002 33.523518 33.526958 33.523518 18.347796 0 33.523518-15.170562 33.523518-33.523518 0-46.92914 96.689752-106.395195 258.6616-124.211445 16.763479-1.589477 29.642716-16.235374 29.642716-32.995412l0-51.348368c0-11.28976-6.001824-21.523309-15.174002-28.051519-68.634792-44.818439-115.040988-138.155495-115.040988-232.022376C279.656804 220.2802 389.755619 194.876089 472.860846 194.876089z"
        p-id="2386"></path>
    <path
        d="M884.851942 357.377763l-42.17275-10.761655C829.271849 154.294536 668.357932 2.024691 472.860846 2.024691c-199.204146 0-361.7041 157.740123-370.349892 354.651225L77.631508 377.844862c-7.584421 6.52821-11.819586 15.702107-11.819586 25.407551l0 131.801026c0 18.351236 15.174002 33.525238 33.523518 33.525238s33.525238-15.174002 33.525238-33.525238L132.860678 418.957961l24.879446-20.468819c7.587861-6.52821 11.821306-15.702107 11.821306-25.409271 0-167.971952 136.566017-304.009864 304.008144-304.009864 167.443847 0 304.011585 136.566017 304.011585 304.009864 0 15.174002 10.233549 28.583065 25.409271 32.465586l41.637764 10.233549 0 119.805979c0 18.351236 15.172282 33.521797 33.521797 33.521797 18.352956 0 33.525238-15.168841 33.525238-33.521797l0-145.741635C910.257773 374.139522 900.025944 360.554997 884.851942 357.377763z"
        p-id="2387"></path>
    <path
        d="M760.107231 493.412235c-5.996664 17.81969-61.578477 63.166234-247.899945 63.166234-18.349516 0-33.523518 15.172282-33.523518 33.523518 0 18.349516 15.174002 33.523518 33.523518 33.523518 283.369024 0 311.06962-98.805614 313.713588-118.746327l-32.997132-4.231725L760.107231 493.412235z"
        p-id="2388"></path>
    <path
        d="M603.603941 726.666284l0-22.053135c0-18.347796-15.175722-33.521797-33.521797-33.521797-18.352956 0-33.525238 15.172282-33.525238 33.521797l0 51.343208c0 16.763479 12.877517 31.232194 29.637556 32.998853 17.295025 2.114142 34.056784 4.236885 49.758891 7.059756l0-67.575141C612.251454 728.255761 607.837386 727.727655 603.603941 726.666284z"
        p-id="2389"></path>
    <path
        d="M955.979001 825.468229l-22.057032 0c-0.759313 0-1.44807 0.344379-2.170425 0.448532-3.378271-20.368737-11.201546-39.079417-22.74411-55.172819 0.552686-0.446852 1.239763-0.655159 1.757171-1.172567l15.577674-15.575994c8.614506-8.614506 8.614506-22.57444 0-31.187266-8.617866-8.616186-22.57444-8.616186-31.188946 0l-15.609592 15.577674c-0.517408 0.515728-0.688757 1.206165-1.172567 1.755491-16.093402-11.544244-34.83768-19.399437-55.170803-22.74243 0.104154-0.759313 0.448532-1.412792 0.448532-2.170425l0-22.057032c0-12.164126-9.892907-22.055353-22.055353-22.055353-12.167486 0-22.057032 9.891227-22.057032 22.055353l0 22.057032c0 0.757633 0.347738 1.44639 0.450212 2.170425-20.367057 3.342993-39.077737 11.198186-55.209777 22.74243-0.443493-0.549326-0.653479-1.239763-1.170887-1.755491l-15.577674-15.577674c-8.616186-8.616186-22.571081-8.616186-31.183907 0-8.617866 8.612826-8.617866 22.57276 0 31.187266l15.574314 15.575994c0.515728 0.517408 1.204485 0.688757 1.757171 1.172567-11.545924 16.093402-19.402797 34.83936-22.74579 55.204737-0.757633-0.102474-1.411113-0.443493-2.170425-0.443493l-22.055353 0c-12.162446 0-22.055353 9.887867-22.055353 22.051993 0 12.165806 9.891227 22.053673 22.055353 22.053673l22.055353 0c0.759313 0 1.44975-0.341019 2.170425-0.446852 3.378271 20.367057 11.199866 39.114695 22.74579 55.208097-0.552686 0.446852-1.241443 0.653479-1.757171 1.169208l-15.574314 15.577674c-8.617866 8.617866-8.617866 22.57276 0 31.188946 8.612826 8.614506 22.567721 8.614506 31.183907 0l15.577674-15.575994c0.517408-0.517408 0.690437-1.207845 1.170887-1.757171 16.096762 11.544244 34.84272 19.399437 55.209777 22.74243-0.102474 0.757633-0.450212 1.412792-0.450212 2.170425l0 22.057032c0 12.164126 9.889547 22.053673 22.057032 22.053673 12.162446 0 22.055353-9.889547 22.055353-22.053673l0-22.057032c0-0.757633-0.344379-1.44639-0.448532-2.170425 20.367057-3.376591 39.079417-11.198186 55.170803-22.74243 0.448532 0.549326 0.655159 1.239763 1.172567 1.757171l15.575994 15.575994c8.614506 8.614506 22.57444 8.614506 31.187266 0 8.616186-8.616186 8.616186-22.571081 0-31.188946l-15.577674-15.577674c-0.515728-0.515728-1.206165-0.687077-1.755491-1.169208 11.544244-16.093402 19.399437-34.84104 22.74243-55.208097 0.757633 0.105833 1.44639 0.446852 2.205703 0.446852l22.057032 0c12.164126 0 22.053673-9.887867 22.053673-22.053673C978.032338 835.392718 968.142791 825.468229 955.979001 825.468229zM801.593549 935.742976c-48.727059 0-88.221074-39.494351-88.221074-88.219394 0-48.728739 39.494351-88.221074 88.221074-88.221074 48.728739 0 88.219394 39.492671 88.219394 88.221074C889.812944 896.250304 850.321952 935.742976 801.593549 935.742976z"
        p-id="2390"></path>
</svg>