<?xml version="1.0" standalone="no"?><!DOCTYPE svg PUBLIC "-//W3C//DTD SVG 1.1//EN" "http://www.w3.org/Graphics/SVG/1.1/DTD/svg11.dtd"><svg t="1735653521416" class="icon" viewBox="0 0 1024 1024" version="1.1" xmlns="http://www.w3.org/2000/svg" p-id="8320" xmlns:xlink="http://www.w3.org/1999/xlink" width="200" height="200"><path d="M825.7 157.5H638.4c-18.8-52-68.1-89.6-126.4-89.6s-107.5 37.6-126.4 89.6H198.3c-49.3 0-89.6 40.3-89.6 89.6v627.4c0 49.3 40.3 89.6 89.6 89.6h627.4c49.3 0 89.6-40.3 89.6-89.6V247.1c0-49.3-40.3-89.6-89.6-89.6z m-313.7 0c24.6 0 44.8 20.2 44.8 44.8 0 24.6-20.2 44.8-44.8 44.8s-44.8-20.2-44.8-44.8c0-24.6 20.2-44.8 44.8-44.8z m0 676.1c-132.5 0-240-107.5-240-240s107.5-240 240-240 240 107.5 240 240-107.5 240-240 240z"  p-id="8321"></path><path d="M512 423.6c-93.9 0-170 76.1-170 170 0 35.8 11.1 69 30 96.4l236.4-236.4c-27.4-18.9-60.6-30-96.4-30zM422.7 738.3c25.9 16 56.5 25.3 89.3 25.3 93.9 0 170-76.1 170-170 0-32.7-9.3-63.3-25.3-89.3l-234 234z"  p-id="8322"></path></svg>