<?xml version="1.0" standalone="no"?><!DOCTYPE svg PUBLIC "-//W3C//DTD SVG 1.1//EN" "http://www.w3.org/Graphics/SVG/1.1/DTD/svg11.dtd"><svg t="1736927548882" class="icon" viewBox="0 0 1024 1024" version="1.1" xmlns="http://www.w3.org/2000/svg" p-id="4215" ne="0.21366560903763654" xmlns:xlink="http://www.w3.org/1999/xlink" width="200" height="200"><path d="M189.247 671.776h-5.941c-15.044 0-27.293 12.254-27.293 27.302v5.942c0 15.044 12.25 27.289 27.293 27.289h5.941c15.044 0 27.298-12.245 27.298-27.289v-5.942c0-15.044-12.254-27.302-27.298-27.302zM189.247 429.655h-5.941c-15.044 0-27.293 12.258-27.293 27.301v5.928c0 15.048 12.25 27.303 27.293 27.303h5.941c15.044 0 27.298-12.254 27.298-27.303v-5.928c0-15.043-12.254-27.301-27.298-27.301zM189.247 550.7h-5.941c-15.044 0-27.293 12.27-27.293 27.315v5.96c0 15.043 12.25 27.283 27.293 27.283h5.941c15.044 0 27.298-12.241 27.298-27.284v-5.96c0-15.042-12.254-27.315-27.298-27.315zM504.06 187.542H261.938c-8.35 0-15.13 6.766-15.13 15.134 0 8.35 6.784 15.115 15.13 15.115h242.12c8.369 0 15.136-6.766 15.136-15.115-0.001-8.368-6.767-15.134-15.136-15.134zM189.247 308.6h-5.941c-15.044 0-27.293 12.254-27.293 27.288v5.941c0 15.057 12.25 27.294 27.293 27.294h5.941c15.044 0 27.298-12.236 27.298-27.294v-5.941c0-15.033-12.254-27.289-27.298-27.289z"  p-id="4216"></path><path d="M915.27 308.6H700.785V172.393c0-41.71-33.947-75.647-75.662-75.647h-183.51C434.875 70.665 411.156 51.35 383 51.35c-28.154 0-51.874 19.315-58.613 45.397H140.88c-41.72 0-75.662 33.937-75.662 75.647V807.96c0 41.719 33.947 75.678 75.662 75.678h245.464v21.058c0 23.93 19.58 43.51 43.511 43.51h485.417c23.93 0 43.51-19.58 43.51-43.51V352.11c0-23.93-19.58-43.51-43.511-43.51zM383.002 81.611c16.685 0 30.263 13.57 30.263 30.281 0 16.672-13.578 30.237-30.263 30.237-16.685 0-30.267-13.564-30.267-30.237 0-16.711 13.582-30.281 30.267-30.281z m13.949 242.126l-119.865 0.024c-8.363 0-15.13 6.757-15.13 15.12s6.766 15.134 15.13 15.134l109.258-0.023v90.81l-109.258 0.022c-8.363 0-15.13 6.766-15.13 15.116 0 8.368 6.766 15.148 15.13 15.148l109.258-0.022v90.783l-109.27 0.02c-8.35 0-15.131 6.799-15.131 15.148s6.78 15.134 15.13 15.134l109.271-0.02v90.798l-109.27 0.022c-8.35 0-15.134 6.766-15.134 15.121 0 8.368 6.783 15.13 15.133 15.13l109.271-0.022V853.36H140.88c-25.03 0-45.398-20.35-45.398-45.397V172.394c0-25.011 20.368-45.383 45.398-45.383h183.504a59.982 59.982 0 0 0 6.222 15.12h-68.667c-8.35 0-15.13 6.78-15.13 15.148 0 8.35 6.784 15.116 15.13 15.116h242.12c8.369 0 15.136-6.766 15.136-15.116 0-8.367-6.766-15.148-15.136-15.148h-68.663a60.307 60.307 0 0 0 6.222-15.12h183.504c25.03 0 45.393 20.372 45.393 45.383V308.6h-240.66c-13.114 0-24.91 5.888-32.905 15.14z m494.698 500.618c-5.096 5.093-13.628 13.546-13.628 13.546s-8.534 8.478-13.659 13.545c-5.121 5.093-21.664 5.48-27.201-0.085-5.509-5.508-69.302-69.717-69.302-69.717l-13.574-13.656s-22.08 5.04-27.176-0.096c-5.082-5.125-8.478-8.492-8.478-8.492s-5.067-5.138 0.9-11.046c5.978-5.952 21.291-21.183 21.291-21.183l-57.208-57.565-30.997 30.804c7.191 14.057 11.625 29.772 11.57 46.658-0.179 56.558-46.133 102.21-102.69 102.07-9.169-0.028-17.91-1.656-26.36-3.975l54.044-53.713-12.579-59.695-59.61-12.909-53.908 53.603c-2.18-8.382-3.701-17-3.645-26.028 0.178-56.558 46.132-102.263 102.69-102.085 18.81 0.056 36.179 5.537 51.299 14.43l29.894-29.715-93.149-93.729-33.926-20.494-27.12-27.283-28.734-52.775 8.532-8.478 8.534-8.45 52.583 29.052 27.145 27.259 20.27 34.05 93.138 93.73 29.88-29.702c-8.796-15.175-14.165-32.572-14.112-51.38 0.181-56.559 46.135-102.207 102.693-102.057 9.168 0.029 17.923 1.657 26.36 3.979l-54.044 53.713 12.578 59.692 59.61 12.912 53.905-53.603c2.183 8.379 3.702 16.996 3.645 26.028-0.163 56.558-46.117 102.263-102.676 102.082-16.889-0.054-32.575-4.57-46.605-11.86l-30.929 30.75 57.22 57.58s15.342-15.257 21.294-21.21c5.993-5.907 11.046-0.786 11.046-0.786s3.425 3.397 8.492 8.535c5.082 5.093-0.085 27.174-0.085 27.174l13.534 13.656s63.821 64.18 69.33 69.716c5.509 5.536 5.014 22.108-0.082 27.203z"  p-id="4217"></path></svg>