<?xml version="1.0" standalone="no"?>
<!DOCTYPE svg PUBLIC "-//W3C//DTD SVG 1.1//EN" "http://www.w3.org/Graphics/SVG/1.1/DTD/svg11.dtd"><svg t="1733196800366"
    class="icon" viewBox="0 0 1024 1024" version="1.1" xmlns="http://www.w3.org/2000/svg" p-id="2329"
    xmlns:xlink="http://www.w3.org/1999/xlink" width="200" height="200">
    <path d="M745.244444 0h-31.857777v170.666667a28.444444 28.444444 0 0 0 27.306666 28.444444h205.937778v-32.995555z"
        p-id="2330"></path>
    <path
        d="M659.911111 170.666667V0H184.888889a113.777778 113.777778 0 0 0-107.52 113.777778v796.444444a113.777778 113.777778 0 0 0 107.52 113.777778h654.222222a113.777778 113.777778 0 0 0 107.52-113.777778V256H739.555556A83.626667 83.626667 0 0 1 659.911111 170.666667z m145.635556 658.204444H217.884444a27.306667 27.306667 0 0 1-26.737777-28.444444 27.875556 27.875556 0 0 1 26.737777-28.444445h587.662223a27.875556 27.875556 0 0 1 26.737777 28.444445 27.306667 27.306667 0 0 1-26.737777 28.444444z m0-150.755555H217.884444a28.444444 28.444444 0 0 1 0-56.888889h587.662223a28.444444 28.444444 0 0 1 0 56.888889z m0-151.324445H217.884444a27.306667 27.306667 0 0 1-26.737777-28.444444 27.875556 27.875556 0 0 1 26.737777-28.444445h587.662223a27.875556 27.875556 0 0 1 26.737777 28.444445 27.306667 27.306667 0 0 1-26.737777 28.444444z m26.737777-179.2a27.306667 27.306667 0 0 1-26.737777 28.444445H217.884444a28.444444 28.444444 0 0 1 0-56.888889h587.662223a27.306667 27.306667 0 0 1 26.737777 28.444444z"
        p-id="2331"></path>
</svg>